<?xml version="1.0" encoding="UTF-8" standalone="no"?>
<!-- Svg Vector Icons : http://www.onlinewebfonts.com/icon -->

<svg
   xmlns:dc="http://purl.org/dc/elements/1.1/"
   xmlns:cc="http://creativecommons.org/ns#"
   xmlns:rdf="http://www.w3.org/1999/02/22-rdf-syntax-ns#"
   xmlns:svg="http://www.w3.org/2000/svg"
   xmlns="http://www.w3.org/2000/svg"
   xmlns:sodipodi="http://sodipodi.sourceforge.net/DTD/sodipodi-0.dtd"
   xmlns:inkscape="http://www.inkscape.org/namespaces/inkscape"
   version="1.1"
   x="0px"
   y="0px"
   viewBox="0 0 1000 1000"
   enable-background="new 0 0 1000 1000"
   xml:space="preserve"
   id="svg10"
   sodipodi:docname="arrow-up.svg"
   inkscape:version="0.92.4 (5da689c313, 2019-01-14)"><defs
   id="defs14" /><sodipodi:namedview
   pagecolor="#ffffff"
   bordercolor="#666666"
   borderopacity="1"
   objecttolerance="10"
   gridtolerance="10"
   guidetolerance="10"
   inkscape:pageopacity="0"
   inkscape:pageshadow="2"
   inkscape:window-width="1366"
   inkscape:window-height="705"
   id="namedview12"
   showgrid="false"
   inkscape:zoom="0.472"
   inkscape:cx="387.77866"
   inkscape:cy="472.02549"
   inkscape:window-x="-8"
   inkscape:window-y="-8"
   inkscape:window-maximized="1"
   inkscape:current-layer="svg10" />
<metadata
   id="metadata2"> Svg Vector Icons : http://www.onlinewebfonts.com/icon <rdf:RDF><cc:Work
     rdf:about=""><dc:format>image/svg+xml</dc:format><dc:type
       rdf:resource="http://purl.org/dc/dcmitype/StillImage" /></cc:Work></rdf:RDF></metadata>
<rect
   style="opacity:0.98000004;fill:#ffffff;fill-opacity:1;stroke:none;stroke-width:8.0163784;stroke-miterlimit:4;stroke-dasharray:none;stroke-opacity:0.94117647"
   id="rect821"
   width="720.33899"
   height="506.35593"
   x="135.59322"
   y="218.22034" /><g
   id="g8"><path
     d="M13,993.2L13,993.2L13,993.2z"
     id="path4" /><path
     d="M818.4,529.4L528.7,239.7c-8.1-8.1-17.7-12.1-28.7-12.1c-11.1,0-20.6,4-28.7,12.1L181.6,529.4c-8.1,8.1-12.1,17.7-12.1,28.7c0,11.1,4,20.6,12.1,28.7l65.1,65.1c8.1,8.1,17.7,12.1,28.7,12.1s20.6-4,28.7-12.1L500,456l195.9,195.9c8.1,8.1,17.7,12.1,28.7,12.1c11.1,0,20.6-4,28.7-12.1l65.1-65.1c8.1-8.1,12.1-17.7,12.1-28.7C830.5,547,826.4,537.5,818.4,529.4L818.4,529.4z M500,6.8c88.9,0,170.9,21.9,246,65.7s134.5,103.3,178.3,178.3c43.8,75.1,65.7,157.1,65.7,246c0,88.9-21.9,170.9-65.7,246C880.5,817.9,821,877.3,746,921.1s-157,65.7-246,65.7c-88.9,0-170.9-21.9-246-65.7C179,877.3,119.5,817.9,75.7,742.8C31.9,667.7,10,585.7,10,496.8c0-88.9,21.9-170.9,65.7-246C119.5,175.8,179,116.4,254,72.6C329.1,28.7,411.1,6.8,500,6.8L500,6.8z"
     id="path6" /></g>
</svg>